<svg
   xmlns:osb="http://www.openswatchbook.org/uri/2009/osb"
   xmlns:dc="http://purl.org/dc/elements/1.1/"
   xmlns:cc="http://creativecommons.org/ns#"
   xmlns:rdf="http://www.w3.org/1999/02/22-rdf-syntax-ns#"
   xmlns:svg="http://www.w3.org/2000/svg"
   xmlns="http://www.w3.org/2000/svg"
   viewBox="0 0 243.21586 114.92281"
   height="114.92281"
   width="243.21587"
   xml:space="preserve"
   id="svg4485"
   version="1.1"><metadata
     id="metadata4491"><rdf:RDF><cc:Work
         rdf:about=""><dc:format>image/svg+xml</dc:format><dc:type
           rdf:resource="http://purl.org/dc/dcmitype/StillImage" /><dc:title></dc:title></cc:Work></rdf:RDF></metadata><defs
     id="defs4489"><linearGradient
       osb:paint="solid"
       id="linearGradient845"><stop
         id="stop843"
         offset="0"
         style="stop-color:#000000;stop-opacity:1;" /></linearGradient></defs><g
     transform="matrix(1.3333333,0,0,-1.3333333,-34.228799,164.58472)"
     id="g4493"><g
       id="text4497"
       style="font-variant:normal;font-weight:normal;font-stretch:normal;font-size:64.55780029px;font-family:Haettenschweiler;-inkscape-font-specification:Haettenschweiler;writing-mode:lr-tb;fill:#ffffff;fill-opacity:1;fill-rule:nonzero;stroke:none"
       transform="scale(1,-1)"
       aria-label="source"><path
         id="path4542"
         style="fill:#ffffff;fill-opacity:1"
         d="m 51.956193,-101.30984 h 8.952352 v 7.7545 q 0,1.859819 1.513073,1.859819 1.513073,0 1.513073,-3.562027 0,-4.633787 -1.859819,-5.989252 -7.029487,-3.68811 -8.479516,-5.13814 -1.450028,-1.48155 -1.450028,-4.41313 v -4.91749 q 0,-7.72298 10.465424,-7.72298 10.181724,0 10.181724,7.40775 v 7.21863 h -8.763217 l 0.189134,-4.38161 q 0,-4.57075 -1.670686,-4.57075 -1.670685,0 -1.670685,2.86854 0,2.9631 0.725015,4.47618 0.756536,1.51307 8.258859,5.20119 3.120714,2.23808 3.120714,5.9262 v 5.484891 q 0,7.722979 -10.623037,7.722979 -10.40238,0 -10.40238,-7.407755 z" /><path
         id="path4544"
         style="fill:#ffffff;fill-opacity:1"
         d="m 74.65204,-93.807519 v -21.908041 q 0,-7.72298 10.686081,-7.72298 4.12943,0 7.250144,1.79677 3.152236,1.79678 3.152236,5.61098 v 22.538495 q 0,7.407755 -10.40238,7.407755 -10.686081,0 -10.686081,-7.722979 z m 12.104588,0.252179 v -22.4124 q 0,-1.79678 -1.544596,-1.79678 -1.576118,0 -1.576118,1.79678 v 22.4124 q 0,1.859819 1.576118,1.859819 1.544596,0 1.544596,-1.859819 z" /><path
         id="path4546"
         style="fill:#ffffff;fill-opacity:1"
         d="m 118.55942,-86.588898 h -8.95235 v -1.229372 q -1.73373,1.73373 -5.54794,1.73373 -2.64788,0 -4.602264,-1.386984 -1.922864,-1.418506 -1.922864,-3.688116 v -32.02672 h 8.952348 v 29.757109 q 0,1.670686 1.57612,1.670686 1.5446,0 1.5446,-1.607641 v -29.820154 h 8.95235 z" /><path
         id="path4548"
         style="fill:#ffffff;fill-opacity:1"
         d="m 141.82569,-108.0241 h -8.98387 v -7.94364 q 0,-1.67069 -1.5446,-1.67069 -1.54459,0 -1.54459,1.60764 v 29.441892 h -8.98387 v -36.597462 h 8.98387 v 1.22937 q 1.79677,-1.48155 5.54793,-1.48155 2.67941,0 4.60227,1.45003 1.92286,1.4185 1.92286,3.75116 z" /><path
         id="path4550"
         style="fill:#ffffff;fill-opacity:1"
         d="m 164.52457,-106.98387 h -8.95235 v -8.98387 q 0,-1.79678 -1.5446,-1.79678 -1.57612,0 -1.57612,1.79678 v 22.4124 q 0,1.859819 1.57612,1.859819 1.5446,0 1.5446,-1.859819 v -8.85778 h 8.95235 v 8.920825 q 0,7.407755 -10.37086,7.407755 -10.65456,0 -10.65456,-7.722979 v -21.908041 q 0,-7.72298 10.65456,-7.72298 10.37086,0 10.37086,7.40775 z" /><path
         id="path4552"
         style="fill:#ffffff;fill-opacity:1"
         d="m 187.53868,-102.0979 h -12.07307 v 8.54256 q 0,1.859819 1.57612,1.859819 1.5446,0 1.5446,-1.859819 v -7.37623 h 8.95235 v 7.439275 q 0,7.407755 -10.55999,7.407755 -10.46543,0 -10.46543,-7.722979 v -21.908041 q 0,-7.72298 10.46543,-7.72298 10.55999,0 10.55999,7.40775 z m -8.95235,-5.48489 v -8.38495 q 0,-1.79678 -1.5446,-1.79678 -1.57612,0 -1.57612,1.79678 v 8.38495 z" /></g><g
       id="text4509"
       style="font-variant:normal;font-weight:normal;font-stretch:normal;font-size:53.7981987px;font-family:Haettenschweiler;-inkscape-font-specification:Haettenschweiler;writing-mode:lr-tb;fill:#ffffff;fill-opacity:1;fill-rule:nonzero;stroke:none"
       transform="scale(1,-1)"
       aria-label="BOTS"><path
         id="path4532"
         style="fill:#ffffff;fill-opacity:1"
         d="m 110.30677,-41.936001 v -37.669246 h 9.74567 q 3.49373,0 6.06806,1.602387 2.57432,1.576119 2.57432,5.06985 v 5.227462 q 0,3.966566 -4.83343,5.595223 5.09612,1.260895 5.09612,5.437611 v 7.302685 q 0,3.730148 -2.44298,5.595223 -2.41672,1.838805 -5.77911,1.838805 z m 10.58627,-24.429846 v -6.409551 q 0,-1.970149 -2.31165,-1.970149 v 10.376118 q 2.31165,0 2.31165,-1.996418 z m 0,17.599997 v -9.535521 q 0,-1.970149 -2.31165,-1.970149 v 13.502087 q 2.31165,0 2.31165,-1.996417 z" /><path
         id="path4534"
         style="fill:#ffffff;fill-opacity:1"
         d="m 130.67002,-48.37182 v -24.245966 q 0,-7.328954 9.50925,-7.328954 9.37791,0 9.37791,7.276417 v 24.245965 q 0,3.283582 -2.62687,5.06985 -2.60059,1.76 -6.80358,1.76 -9.45671,0 -9.45671,-6.777312 z m 10.79641,0.394029 v -25.664472 q 0,-1.129552 -1.3397,-1.129552 -1.39224,0 -1.39224,1.129552 v 25.664472 q 0,1.129552 1.39224,1.129552 1.3397,0 1.3397,-1.129552 z" /><path
         id="path4536"
         style="fill:#ffffff;fill-opacity:1"
         d="m 168.55823,-74.69301 h -4.62328 v 32.757009 h -8.27463 V -74.69301 h -4.62328 v -4.912237 h 17.52119 z" /><path
         id="path4538"
         style="fill:#ffffff;fill-opacity:1"
         d="m 170.10284,-57.014207 h 7.5391 v 8.642387 q 0,1.287163 1.54985,1.287163 1.49731,0 1.49731,-1.287163 v -4.465671 q 0,-2.048955 -2.73194,-4.807164 -5.28,-5.122387 -6.56716,-6.882386 -1.28716,-1.76 -1.28716,-3.861492 v -4.229253 q 0,-7.328954 9.56178,-7.328954 8.56359,0 8.56359,6.672238 v 6.514625 h -7.53911 v -6.934924 q 0,-1.129552 -1.23462,-1.129552 -1.44478,0 -1.44478,2.180298 l 0.15761,2.442985 q 0,2.101492 2.78448,4.885969 5.17492,4.964775 6.56716,6.934924 1.41851,1.970149 1.41851,4.465671 v 4.807163 q 0,7.512835 -9.58806,7.512835 -9.24656,0 -9.24656,-6.82985 z" /></g><g
       transform="translate(76.6233,56.9097)"
       id="g4511"><path
         id="path4513"
         style="fill:#231f20;fill-opacity:1;fill-rule:nonzero;stroke:none"
         d="M 0,0 H 30.485 Z" /></g><g
       style="stroke:#ffffff;stroke-opacity:1"
       id="g4770"><path
         id="path4501"
         style="fill:none;stroke:#ffffff;stroke-width:4;stroke-linecap:square;stroke-linejoin:miter;stroke-miterlimit:10;stroke-dasharray:none;stroke-opacity:1"
         d="M 45.4526,105.687 H 27.6716 V 56.46 h 29.051 l -0.005,14.706 11.841,-14.706 -11.841,-13.807 0.005,13.807" /><g
         style="stroke:#ffffff;stroke-opacity:1"
         id="g4503"
         transform="translate(75.0088,73.1387)"><path
           d="M 0,0 V -32.458"
           style="fill:none;stroke:#ffffff;stroke-width:4;stroke-linecap:square;stroke-linejoin:miter;stroke-miterlimit:10;stroke-dasharray:none;stroke-opacity:1"
           id="path4505" /></g><g
         style="stroke:#ffffff;stroke-opacity:1"
         id="g4515"
         transform="translate(76.623,56.9097)"><path
           d="M 0,0 H 30.485"
           style="fill:none;stroke:#ffffff;stroke-width:4;stroke-linecap:butt;stroke-linejoin:miter;stroke-miterlimit:10;stroke-dasharray:none;stroke-opacity:1"
           id="path4517" /></g></g><g
       style="stroke:#ffffff;stroke-opacity:1"
       id="g4782"><g
         style="stroke:#ffffff;stroke-opacity:1"
         id="g4519"
         transform="translate(192.1094,56.9097)"><path
           d="M 0,0 H 11.297 V 9.953"
           style="fill:none;stroke:#ffffff;stroke-width:4;stroke-linecap:butt;stroke-linejoin:miter;stroke-miterlimit:10;stroke-dasharray:none;stroke-opacity:1"
           id="path4521" /></g><g
         style="stroke:#ffffff;stroke-opacity:1"
         id="g4531"
         transform="translate(206.9937,69.4629)"><path
           d="m 0,0 c 0,-2.03 -1.646,-3.676 -3.677,-3.676 -2.03,0 -3.676,1.646 -3.676,3.676 0,2.03 1.646,3.676 3.676,3.676 C -1.646,3.676 0,2.03 0,0 Z"
           style="fill:none;stroke:#ffffff;stroke-width:2;stroke-linecap:butt;stroke-linejoin:miter;stroke-miterlimit:10;stroke-dasharray:none;stroke-opacity:1"
           id="path4533" /></g><g
         style="stroke:#ffffff;stroke-opacity:1"
         id="g4535"
         transform="translate(192.1992,105.687)"><path
           d="M 0,0 H 11.297 V -10.126"
           style="fill:none;stroke:#ffffff;stroke-width:4;stroke-linecap:butt;stroke-linejoin:miter;stroke-miterlimit:10;stroke-dasharray:none;stroke-opacity:1"
           id="path4537" /></g><g
         style="stroke:#ffffff;stroke-opacity:1"
         id="g4539"
         transform="translate(207.0835,92.3989)"><path
           d="m 0,0 c 0,2.119 -1.646,3.836 -3.677,3.836 -2.03,0 -3.676,-1.717 -3.676,-3.836 0,-2.119 1.646,-3.837 3.676,-3.837 C -1.646,-3.837 0,-2.119 0,0 Z"
           style="fill:none;stroke:#ffffff;stroke-width:2;stroke-linecap:butt;stroke-linejoin:miter;stroke-miterlimit:10;stroke-dasharray:none;stroke-opacity:1"
           id="path4541" /></g><g
         style="fill-opacity:1;fill:#bbbbc4;stroke:#ffffff;stroke-opacity:1"
         id="g4543"
         transform="translate(194.7993,89.8164)"><path
           d="M 0,0 6.838,-17.086"
           style="fill:#bbbbc4;stroke:#ffffff;stroke-width:2;stroke-linecap:butt;stroke-linejoin:miter;stroke-miterlimit:10;stroke-dasharray:none;stroke-opacity:1;fill-opacity:1"
           id="path4545" /></g></g></g></svg>
